<?xml version="1.0" encoding="UTF-8"?>
<svg width="180px" height="52px" viewBox="0 0 180 52" version="1.1" xmlns="http://www.w3.org/2000/svg" xmlns:xlink="http://www.w3.org/1999/xlink">
    <!-- Generator: Sketch 64 (93537) - https://sketch.com -->
    <title>page-logo</title>
    <desc>Created with Sketch.</desc>
    <g id="Page-1" stroke="none" stroke-width="1" fill="none" fill-rule="evenodd">
        <g id="page-logo" transform="translate(-1.000000, 2.000000)">
            <path d="M7.5957031,34.3867188 C8.7558594,34.3867188 9.7636719,34.2460938 10.6191406,33.9648438 C11.4746094,33.6835938 12.1865234,33.2998047 12.7548828,32.8134766 C13.3232422,32.3271484 13.7480469,31.7529297 14.0292969,31.0908203 C14.3105469,30.4287109 14.4511719,29.7167969 14.4511719,28.9550781 C14.4511719,28.2050781 14.3017578,27.5488281 14.0029297,26.9863281 C13.7041016,26.4238281 13.3085938,25.9287109 12.8164062,25.5009766 C12.3242188,25.0732422 11.7646484,24.6953125 11.1376953,24.3671875 C10.5107422,24.0390625 9.8720703,23.734375 9.2216797,23.453125 C8.5712891,23.171875 7.9326172,22.8964844 7.3056641,22.6269531 C6.6787109,22.3574219 6.1191406,22.0615234 5.6269531,21.7392578 C5.1347656,21.4169922 4.7392578,21.0566406 4.4404297,20.6582031 C4.1416016,20.2597656 3.9921875,19.7910156 3.9921875,19.2519531 C3.9921875,18.9238281 4.0771484,18.6132812 4.2470703,18.3203125 C4.4169922,18.0273438 4.6513672,17.7724609 4.9501953,17.5556641 C5.2490234,17.3388672 5.609375,17.1689453 6.03125,17.0458984 C6.453125,16.9228516 6.921875,16.8613281 7.4375,16.8613281 C8.3867188,16.8613281 9.2802734,17.1337891 10.1181641,17.6787109 C10.9560547,18.2236328 11.7148438,19.0527344 12.3945312,20.1660156 L12.3945312,20.1660156 L13.7128906,18.9882812 C13.1621094,18.2851562 12.640625,17.7138672 12.1484375,17.2744141 C11.65625,16.8349609 11.1611328,16.4980469 10.6630859,16.2636719 C10.1650391,16.0292969 9.6582031,15.8710938 9.1425781,15.7890625 C8.6269531,15.7070312 8.0703125,15.6660156 7.4726562,15.6660156 C6.5820312,15.6660156 5.7617188,15.7919922 5.0117188,16.0439453 C4.2617188,16.2958984 3.6142578,16.6445312 3.0693359,17.0898438 C2.5244141,17.5351562 2.0996094,18.0654297 1.7949219,18.6806641 C1.4902344,19.2958984 1.3378906,19.9609375 1.3378906,20.6757812 C1.3378906,21.4375 1.4755859,22.1025391 1.7509766,22.6708984 C2.0263672,23.2392578 2.3896484,23.7402344 2.8408203,24.1738281 C3.2919922,24.6074219 3.8046875,24.9853516 4.3789062,25.3076172 C4.953125,25.6298828 5.5390625,25.9345703 6.1367188,26.2216797 C6.734375,26.5087891 7.3203125,26.7871094 7.8945312,27.0566406 C8.46875,27.3261719 8.9814453,27.6220703 9.4326172,27.9443359 C9.8837891,28.2666016 10.2470703,28.6328125 10.5224609,29.0429688 C10.7978516,29.453125 10.9355469,29.9335938 10.9355469,30.484375 C10.9355469,30.8242188 10.8535156,31.1552734 10.6894531,31.4775391 C10.5253906,31.7998047 10.2939453,32.0839844 9.9951172,32.3300781 C9.6962891,32.5761719 9.3417969,32.7724609 8.9316406,32.9189453 C8.5214844,33.0654297 8.0761719,33.1386719 7.5957031,33.1386719 C7.0800781,33.1386719 6.6025391,33.0771484 6.1630859,32.9541016 C5.7236328,32.8310547 5.2958984,32.6318359 4.8798828,32.3564453 C4.4638672,32.0810547 4.0566406,31.7294922 3.6582031,31.3017578 C3.2597656,30.8740234 2.84375,30.3554688 2.4101562,29.7460938 L2.4101562,29.7460938 L0.9511719,31.0644531 C1.4902344,31.7675781 2.0410156,32.3359375 2.6035156,32.7695312 C3.1660156,33.203125 3.7285156,33.5400391 4.2910156,33.7802734 C4.8535156,34.0205078 5.4130859,34.1816406 5.9697266,34.2636719 C6.5263672,34.3457031 7.0683594,34.3867188 7.5957031,34.3867188 Z M35.4570312,41.5761719 L35.4570312,15.6660156 L34.5957031,15.6660156 L31.90625,17.0019531 C31.765625,16.8144531 31.5605469,16.6416016 31.2910156,16.4833984 C31.0214844,16.3251953 30.7138672,16.1845703 30.3681641,16.0615234 C30.0224609,15.9384766 29.6533203,15.8417969 29.2607422,15.7714844 C28.8681641,15.7011719 28.4726562,15.6660156 28.0742188,15.6660156 C27.171875,15.6660156 26.3046875,15.7890625 25.4726562,16.0351562 C24.640625,16.28125 23.8642578,16.6269531 23.1435547,17.0722656 C22.4228516,17.5175781 21.7636719,18.0507812 21.1660156,18.671875 C20.5683594,19.2929688 20.0585938,19.984375 19.6367188,20.7460938 C19.2148438,21.5078125 18.8867188,22.3251953 18.6523438,23.1982422 C18.4179688,24.0712891 18.3007812,24.9765625 18.3007812,25.9140625 C18.3007812,27.0859375 18.4882812,28.1875 18.8632812,29.21875 C19.2382812,30.25 19.7509766,31.1464844 20.4013672,31.9082031 C21.0517578,32.6699219 21.8134766,33.2734375 22.6865234,33.71875 C23.5595703,34.1640625 24.4941406,34.3867188 25.4902344,34.3867188 C26.2753906,34.3867188 26.984375,34.2929688 27.6171875,34.1054688 C28.25,33.9179688 28.8242188,33.6748047 29.3398438,33.3759766 C29.8554688,33.0771484 30.3212891,32.734375 30.7373047,32.3476562 C31.1533203,31.9609375 31.5429688,31.5742188 31.90625,31.1875 L31.90625,31.1875 L31.90625,41.5761719 L35.4570312,41.5761719 Z M27.3359375,31.6621094 C26.5976562,31.6621094 25.9091797,31.4628906 25.2705078,31.0644531 C24.6318359,30.6660156 24.0722656,30.1240234 23.5917969,29.4384766 C23.1113281,28.7529297 22.7333984,27.9472656 22.4580078,27.0214844 C22.1826172,26.0957031 22.0449219,25.1054688 22.0449219,24.0507812 C22.0449219,23.0898438 22.1914062,22.1816406 22.484375,21.3261719 C22.7773438,20.4707031 23.1757812,19.7207031 23.6796875,19.0761719 C24.1835938,18.4316406 24.7724609,17.9248047 25.4462891,17.5556641 C26.1201172,17.1865234 26.84375,17.0019531 27.6171875,17.0019531 C27.8984375,17.0019531 28.1914062,17.03125 28.4960938,17.0898438 C28.8007812,17.1484375 29.0966797,17.2304688 29.3837891,17.3359375 C29.6708984,17.4414062 29.9404297,17.5644531 30.1923828,17.7050781 C30.4443359,17.8457031 30.6523438,17.9921875 30.8164062,18.1445312 C31.1210938,18.4257812 31.3789062,18.7480469 31.5898438,19.1113281 C31.8007812,19.4746094 31.90625,19.9023438 31.90625,20.3945312 L31.90625,20.3945312 L31.90625,29.4648438 C31.765625,29.6992188 31.5488281,29.9453125 31.2558594,30.203125 C30.9628906,30.4609375 30.6142578,30.6982422 30.2099609,30.9150391 C29.8056641,31.1318359 29.3603516,31.3105469 28.8740234,31.4511719 C28.3876953,31.5917969 27.875,31.6621094 27.3359375,31.6621094 Z M47.4628906,34.3867188 C47.9902344,34.3867188 48.546875,34.2871094 49.1328125,34.0878906 C49.71875,33.8886719 50.2871094,33.6191406 50.8378906,33.2792969 C51.3886719,32.9394531 51.9013672,32.5410156 52.3759766,32.0839844 C52.8505859,31.6269531 53.2460938,31.140625 53.5625,30.625 L53.5625,30.625 L53.5625,34 L57.1132812,34 L57.1132812,16 L53.5625,16 L53.5625,29.1484375 C53.328125,29.546875 53.0439453,29.9248047 52.7099609,30.2822266 C52.3759766,30.6396484 52.015625,30.9501953 51.6289062,31.2138672 C51.2421875,31.4775391 50.8466797,31.6855469 50.4423828,31.8378906 C50.0380859,31.9902344 49.6601562,32.0664062 49.3085938,32.0664062 C48.7578125,32.0664062 48.2451172,31.9814453 47.7705078,31.8115234 C47.2958984,31.6416016 46.8769531,31.4101562 46.5136719,31.1171875 C46.1503906,30.8242188 45.8662109,30.4785156 45.6611328,30.0800781 C45.4560547,29.6816406 45.3535156,29.2597656 45.3535156,28.8144531 L45.3535156,28.8144531 L45.3535156,16 L41.7675781,16 L41.7675781,28.8144531 C41.7675781,29.5761719 41.9169922,30.296875 42.2158203,30.9765625 C42.5146484,31.65625 42.921875,32.2480469 43.4375,32.7519531 C43.953125,33.2558594 44.5566406,33.6542969 45.2480469,33.9472656 C45.9394531,34.2402344 46.6777344,34.3867188 47.4628906,34.3867188 Z M66.8164062,34.3867188 C67.578125,34.3867188 68.2490234,34.2988281 68.8291016,34.1230469 C69.4091797,33.9472656 69.9365234,33.7216797 70.4111328,33.4462891 C70.8857422,33.1708984 71.3251953,32.8632812 71.7294922,32.5234375 C72.1337891,32.1835938 72.546875,31.8554688 72.96875,31.5390625 C72.96875,32.0898438 73.1298828,32.5791016 73.4521484,33.0068359 C73.7744141,33.4345703 74.1699219,33.765625 74.6386719,34 L74.6386719,34 L78.2246094,34 C77.7558594,33.765625 77.3603516,33.4345703 77.0380859,33.0068359 C76.7158203,32.5791016 76.5546875,32.0898438 76.5546875,31.5390625 L76.5546875,31.5390625 L76.5546875,20.4296875 C76.5546875,19.7148438 76.4521484,19.0615234 76.2470703,18.4697266 C76.0419922,17.8779297 75.6992188,17.3769531 75.21875,16.9667969 C74.7382812,16.5566406 74.0996094,16.2373047 73.3027344,16.0087891 C72.5058594,15.7802734 71.5214844,15.6660156 70.3496094,15.6660156 C69.4355469,15.6660156 68.5537109,15.7773438 67.7041016,16 C66.8544922,16.2226562 66.0957031,16.5419922 65.4277344,16.9580078 C64.7597656,17.3740234 64.2060547,17.8867188 63.7666016,18.4960938 C63.3271484,19.1054688 63.0605469,19.796875 62.9667969,20.5703125 L62.9667969,20.5703125 L66.2363281,20.5703125 C66.3066406,20.0664062 66.4443359,19.5888672 66.6494141,19.1376953 C66.8544922,18.6865234 67.1181641,18.2939453 67.4404297,17.9599609 C67.7626953,17.6259766 68.1347656,17.359375 68.5566406,17.1601562 C68.9785156,16.9609375 69.4414062,16.8613281 69.9453125,16.8613281 C70.4726562,16.8613281 70.9267578,16.9345703 71.3076172,17.0810547 C71.6884766,17.2275391 72.0019531,17.4736328 72.2480469,17.8193359 C72.4941406,18.1650391 72.6757812,18.6191406 72.7929688,19.1816406 C72.9101562,19.7441406 72.96875,20.4355469 72.96875,21.2558594 L72.96875,21.2558594 L72.96875,22.3808594 C72.171875,22.5800781 71.3515625,22.796875 70.5078125,23.03125 C69.6640625,23.265625 68.84375,23.5322266 68.046875,23.8310547 C67.25,24.1298828 66.5,24.4697266 65.796875,24.8505859 C65.09375,25.2314453 64.4755859,25.6650391 63.9423828,26.1513672 C63.4091797,26.6376953 62.9902344,27.1914062 62.6855469,27.8125 C62.3808594,28.4335938 62.2285156,29.1308594 62.2285156,29.9042969 C62.2285156,30.5371094 62.3369141,31.1289062 62.5537109,31.6796875 C62.7705078,32.2304688 63.0751953,32.7050781 63.4677734,33.1035156 C63.8603516,33.5019531 64.3408203,33.8154297 64.9091797,34.0439453 C65.4775391,34.2724609 66.1132812,34.3867188 66.8164062,34.3867188 Z M68.7148438,32.2070312 C68.3398438,32.2070312 67.9765625,32.1220703 67.625,31.9521484 C67.2734375,31.7822266 66.9628906,31.5478516 66.6933594,31.2490234 C66.4238281,30.9501953 66.2070312,30.6044922 66.0429688,30.2119141 C65.8789062,29.8193359 65.796875,29.4003906 65.796875,28.9550781 C65.796875,28.5332031 65.9023438,28.1289062 66.1132812,27.7421875 C66.3242188,27.3554688 66.6113281,26.9863281 66.9746094,26.6347656 C67.3378906,26.2832031 67.7597656,25.9550781 68.2402344,25.6503906 C68.7207031,25.3457031 69.2246094,25.0615234 69.7519531,24.7978516 C70.2792969,24.5341797 70.8183594,24.296875 71.3691406,24.0859375 C71.9199219,23.875 72.453125,23.6875 72.96875,23.5234375 L72.96875,23.5234375 L72.96875,30.2382812 C72.6171875,30.5078125 72.2714844,30.7597656 71.9316406,30.9941406 C71.5917969,31.2285156 71.2519531,31.4365234 70.9121094,31.6181641 C70.5722656,31.7998047 70.2207031,31.9433594 69.8574219,32.0488281 C69.4941406,32.1542969 69.1132812,32.2070312 68.7148438,32.2070312 Z M85.90625,34 L85.90625,21.4667969 C86.1523438,20.9394531 86.4394531,20.4794922 86.7675781,20.0869141 C87.0957031,19.6943359 87.453125,19.3720703 87.8398438,19.1201172 C88.2265625,18.8681641 88.6337891,18.6777344 89.061523,18.5488281 C89.489258,18.4199219 89.925781,18.3554688 90.371094,18.3554688 C90.652344,18.3554688 90.933594,18.3671875 91.214844,18.390625 C91.496094,18.4140625 91.771484,18.4697266 92.041016,18.5576172 C92.310547,18.6455078 92.574219,18.7685547 92.832031,18.9267578 C93.089844,19.0849609 93.335938,19.2929688 93.570312,19.5507812 L93.570312,19.5507812 L94.695312,16.5449219 C94.25,16.2402344 93.772461,16.0175781 93.262695,15.8769531 C92.75293,15.7363281 92.234375,15.6660156 91.707031,15.6660156 C91.121094,15.6660156 90.543945,15.7568359 89.975586,15.9384766 C89.407227,16.1201172 88.8681641,16.375 88.3583984,16.703125 C87.8486328,17.03125 87.3828125,17.4179688 86.9609375,17.8632812 C86.5390625,18.3085938 86.1875,18.8007812 85.90625,19.3398438 L85.90625,19.3398438 L85.4316406,15.6660156 L84.8867188,15.6660156 L82.3378906,16.6503906 L82.3378906,34 L85.90625,34 Z M104.996094,34.3867188 C105.921875,34.3867188 106.835938,34.2109375 107.738281,33.859375 C108.640625,33.5078125 109.475586,33.0302734 110.243164,32.4267578 C111.010742,31.8232422 111.681641,31.1171875 112.255859,30.3085938 C112.830078,29.5 113.246094,28.6328125 113.503906,27.7070312 L113.503906,27.7070312 L112.466797,27.25 C112.302734,27.8125 112.015625,28.3574219 111.605469,28.8847656 C111.195312,29.4121094 110.700195,29.8808594 110.120117,30.2910156 C109.540039,30.7011719 108.892578,31.0322266 108.177734,31.2841797 C107.462891,31.5361328 106.71875,31.6621094 105.945312,31.6621094 C105.019531,31.6621094 104.169922,31.4511719 103.396484,31.0292969 C102.623047,30.6074219 101.955078,30.0214844 101.392578,29.2714844 C100.830078,28.5214844 100.393555,27.6308594 100.083008,26.5996094 C99.772461,25.5683594 99.617188,24.4492188 99.617188,23.2421875 L99.617188,23.2421875 L113.029297,23.2421875 C113.029297,22.2460938 112.833008,21.2910156 112.44043,20.3769531 C112.047852,19.4628906 111.49707,18.6572266 110.788086,17.9599609 C110.079102,17.2626953 109.232422,16.7060547 108.248047,16.2900391 C107.263672,15.8740234 106.185547,15.6660156 105.013672,15.6660156 C103.677734,15.6660156 102.467773,15.9179688 101.383789,16.421875 C100.299805,16.9257812 99.371094,17.6230469 98.597656,18.5136719 C97.824219,19.4042969 97.226562,20.4619141 96.804688,21.6865234 C96.382812,22.9111328 96.171875,24.2441406 96.171875,25.6855469 C96.171875,26.8808594 96.40332,28.0087891 96.866211,29.0693359 C97.329102,30.1298828 97.958984,31.0527344 98.755859,31.8378906 C99.552734,32.6230469 100.487305,33.2441406 101.55957,33.7011719 C102.631836,34.1582031 103.777344,34.3867188 104.996094,34.3867188 Z M108.546875,21.8007812 L99.634766,21.7832031 C99.681641,21.1035156 99.831055,20.4707031 100.083008,19.8847656 C100.334961,19.2988281 100.654297,18.7919922 101.041016,18.3642578 C101.427734,17.9365234 101.867188,17.6025391 102.359375,17.3623047 C102.851562,17.1220703 103.367188,17.0019531 103.90625,17.0019531 C104.550781,17.0019531 105.154297,17.125 105.716797,17.3710938 C106.279297,17.6171875 106.771484,17.9541016 107.193359,18.3818359 C107.615234,18.8095703 107.946289,19.3164062 108.186523,19.9023438 C108.426758,20.4882812 108.546875,21.1210938 108.546875,21.8007812 L108.546875,21.8007812 Z M158.046875,34 L158.046875,10.1640625 L156.236328,10.1640625 C155.767578,11.1601562 155.105469,11.9277344 154.25,12.4667969 C153.394531,13.0058594 152.251953,13.2753906 150.822266,13.2753906 L150.822266,13.2753906 L150.822266,14.2773438 L154.742188,14.2773438 L154.742188,34 L158.046875,34 Z" id="square1" fill="#000000" fill-rule="nonzero"></path>
            <rect id="Rectangle" stroke="#F50707" stroke-width="4" x="131" y="0" width="48" height="48"></rect>
        </g>
    </g>
</svg>